<?xml version="1.0" encoding="UTF-8" standalone="no"?>
<!-- Created with Inkscape (http://www.inkscape.org/) -->

<svg
   width="100mm"
   height="100mm"
   viewBox="0 0 100 104.0965"
   id="graphic-background"
   xmlns="http://www.w3.org/2000/svg">
  <g
     transform="translate(-45.370161,-130)">
    <path
       id="main"
       style="fill:#91A8A7;fill-opacity:1;stroke-width:3.0767"
       d="m 154.94539,130.55111 -0.8077,4.58008 -2.1916,8.17883 -5.04931,13.87254 -4.63589,9.94203 -3.88245,6.72465 -6.72207,9.60045 -4.01578,4.78575 -14.54329,14.5433 -8.56692,7.18871 -11.370371,7.96179 -9.797335,5.6565 -6.592363,3.07423 -11.389485,4.14548 -4.577499,1.24592 -14.184147,2.50114 -1.249019,0.0951 h 8.884212 l 0.335897,-0.0915 0.610815,-0.0465 -0.378788,0.13798 h 2.046387 l 0.91984,-0.33487 3.071131,-0.23357 -1.219047,0.56844 h 1.655713 l 1.542541,-0.71934 3.004985,-0.22893 -1.642277,0.94827 h 1.400431 l 1.85415,-1.07074 3.765662,-0.2868 -1.9389,1.35754 h 1.219564 l 2.088245,-1.46193 4.69377,-0.35708 -2.167826,1.81901 h 1.087788 l 2.276864,-1.91048 5.040519,-0.38344 -2.293917,2.29392 h 0.990121 l 2.375566,-2.37557 6.51123,-0.49558 -2.409155,2.87115 h 0.912606 l 2.471683,-2.94556 6.114875,-0.4656 -2.388487,3.41116 h 0.853694 l 2.436543,-3.47989 6.473514,-0.493 -2.29392,3.97289 h 0.80822 l 2.33061,-4.03697 6.47195,-0.49299 -2.11253,4.52996 h 0.77153 l 2.14044,-4.59042 6.87658,-0.524 -1.86138,5.11442 h 0.74517 l 1.88257,-5.17178 7.68532,-0.58549 -1.54254,5.75727 h 0.7245 l 1.55753,-5.8136 7.96851,-0.60668 -1.13223,6.42028 h 0.71055 l 1.14153,-6.47506 8.74934,-0.66611 -0.62477,7.14117 h 0.7028 l 0.62942,-7.19491 7.04608,-0.5364 v -0.61134 l -6.99234,0.53227 0.83922,-9.58959 6.15312,-1.08521 v -0.71055 l -6.09007,1.07332 0.68316,-7.80934 5.40691,-1.47175 v -0.81442 l -5.33353,1.45159 0.63149,-7.21868 4.70204,-1.71152 v -0.74466 l -4.63486,1.68672 0.61598,-7.04091 4.01888,-1.87431 v -0.77204 l -3.9486,1.84123 0.61753,-7.05849 3.33107,-1.92288 v -0.80873 l -3.25665,1.8805 0.59066,-6.74997 2.66599,-1.86707 v -0.85421 l -2.58641,1.81125 0.54105,-6.1836 2.04536,-1.71669 v -0.91312 l -1.95906,1.64383 0.52039,-5.94899 1.43867,-1.43868 v -0.9896 l -1.34359,1.34359 0.37982,-4.34289 0.96377,-1.14825 v -1.08831 l -0.85731,1.02165 0.40824,-4.66587 0.44907,-0.6413 v -1.21957 l -0.32711,0.46716 0.32711,-3.74138 v -8.03465 l -0.11214,1.28261 -1.40198,3.00654 0.64699,-3.67058 0.86713,-2.3828 v -2.04639 l -0.16692,0.45837 0.0429,-0.24391 0.12403,-0.46302 z m -0.29042,11.64993 -0.35657,4.07366 -2.03709,3.52846 0.70022,-3.97081 z m -1.95441,1.08418 -0.41134,2.3337 -0.55707,1.19425 0.88211,-3.29179 z m 1.45366,4.63951 -0.33951,3.87883 -2.54817,3.63905 0.63924,-3.62407 z m -2.33474,0.35656 -0.58084,3.29282 -1.45935,2.52853 0.91003,-3.39721 z m 1.87327,4.9165 -0.38964,4.45399 -3.07113,3.66024 0.74724,-4.2385 z m -2.80913,0.39222 -0.56586,3.20756 -2.04225,2.91765 0.80357,-2.99982 z m -1.89756,0.76791 -0.55914,2.08618 -1.39578,2.41846 0.51625,-1.41904 z m 1.04438,4.07056 -0.69711,3.95479 -2.6045,3.10369 1.017,-3.79563 z m 3.16622,0.43821 -0.36536,4.17804 -3.52639,3.5264 0.68419,-3.88141 z m -5.46995,0.19017 -0.6258,2.33526 -2.06344,2.94711 0.61443,-1.68827 z m -1.15549,4.31137 -0.90795,3.38842 -2.65979,3.16983 1.10898,-3.04684 z m 2.51871,0.39274 -0.6475,3.67264 -3.05356,3.05356 0.91157,-3.40134 z m 3.64629,0.36845 -0.50901,5.81515 -4.12792,3.46387 0.99374,-5.63531 z m -9.10125,2.01538 -0.14935,0.41083 -0.50126,0.7152 z m 1.5999,2.21072 -0.83664,3.12229 -3.08095,3.08095 0.9865,-2.71043 z m 2.99568,0.27957 -0.96531,5.47305 -3.67265,3.08198 1.43402,-5.35109 z m -5.66994,0.46147 -0.87281,2.39779 -1.55908,1.85828 1.09296,-2.34404 z m 9.58081,1.834 -0.53123,6.07094 -4.72839,3.31091 1.02836,-5.83168 z m -8.10544,1.89911 -1.37873,5.14542 -3.71915,3.12074 1.81281,-4.98109 z m -3.04788,0.58704 -0.84181,2.31304 -2.11046,2.11046 0.95033,-2.03812 z m -2.12183,0.98754 -0.47543,1.01906 -0.36277,0.43253 z m 8.21035,0.77618 -1.00511,5.69939 -4.26847,2.98896 1.47381,-5.50043 z m -7.4967,2.10581 -1.71411,4.70927 -2.90422,2.43706 2.20917,-4.73769 z m -2.33113,0.58704 -0.65887,1.41284 -1.28261,1.28261 0.70642,-1.2237 z m 14.28182,0.0383 -0.58188,6.65334 -5.36246,3.09593 1.12396,-6.37377 z m -9.1891,1.24178 -1.43092,5.34024 -4.30672,3.01532 1.8557,-5.09788 z m -6.61614,1.98748 -2.03088,4.35477 -2.38952,2.00556 2.64997,-4.59042 z m 10.17457,0.71365 -1.10432,6.26266 -4.88704,2.82154 1.61282,-6.01824 z m -12.4783,0.57981 -0.0274,0.0475 -0.078,0.078 z m 3.96565,0.87591 -1.78284,4.89893 -3.56929,2.49907 2.22674,-4.77542 z m -5.34541,1.5136 -2.30529,3.99304 -2.38745,2.0035 3.04426,-4.34806 z m 18.83192,0.59222 -0.60978,6.97321 -6.00532,2.80035 1.16892,-6.62905 z m -10.24485,0.12919 -1.57768,5.88853 -4.90668,2.8329 2.04225,-5.61103 z m -7.63364,1.45056 -2.10478,4.51393 -3.18999,2.23346 2.58124,-4.47053 z m 11.64166,2.02158 -1.15186,6.53293 -5.49889,2.56419 1.66656,-6.21978 z m -9.45007,0.33848 -1.9854,5.45548 -4.21422,2.43293 2.45618,-5.26738 z m -8.13542,0.66972 -1.77302,2.53215 -1.18804,0.99684 z m 1.66243,0.56276 -2.36988,4.10518 -3.34915,2.34456 2.80345,-4.00338 z m 10.08104,1.80196 -1.63711,6.11022 -5.48545,2.55798 2.09961,-5.76864 z m -8.49612,0.38809 -2.36626,5.07462 -3.90726,2.2562 2.84737,-4.932 z m 19.89439,0.41599 -0.60926,6.9634 -6.62647,2.41174 1.1529,-6.53862 z m -27.71458,1.1927 -1.47433,1.75699 -1.75648,1.47382 z m 1.24953,0.38498 -2.40812,3.43907 -2.75642,1.93012 2.93677,-3.50005 z m 9.10074,1.06247 -2.05362,5.64255 -4.80694,2.24121 2.5032,-5.36815 z m -7.31273,0.29301 -2.70268,4.68085 -4.1274,2.38332 3.13521,-4.47777 z m 17.82061,0.26406 -1.13791,6.45439 -6.07302,2.2102 1.62368,-6.05958 z m -15.92047,2.56781 -2.43344,5.21828 -4.52531,2.11047 2.86753,-4.96662 z m -9.00204,0.2713 -2.06499,2.46083 -3.9181,2.7435 1.1405,-1.1405 z m 18.50688,0.15244 -1.59835,5.96501 -6.00738,2.18695 2.01848,-5.54643 z m -16.77468,0.50385 -2.89285,4.13153 -3.76979,2.17661 3.34191,-3.9827 z m 29.3703,1.04024 -0.62529,7.14996 -7.2533,1.97404 1.17874,-6.68538 z m -27.4035,1.09399 -2.76107,4.78214 -4.74493,2.21279 3.12849,-4.46795 z m 8.32353,0.38551 -1.98024,5.44101 -5.31596,1.93477 2.36781,-5.07773 z m 11.62151,1.23507 -1.16582,6.61251 -6.64404,1.80816 1.65623,-6.18102 z m -27.4469,0.12092 -2.89957,3.45509 -4.88291,2.81946 2.75229,-2.75228 z m 9.91154,1.40198 -2.31097,4.95577 -5.02244,1.8278 2.65824,-4.60386 z m -8.21966,0.21084 -2.96261,4.23127 -4.46794,2.08308 3.2954,-3.9269 z m 18.79834,0.7984 -1.63504,6.10144 -6.5226,1.77508 2.05879,-5.6565 z m -16.35921,1.6862 -2.57504,4.4602 -5.19865,1.89239 2.83601,-4.0504 z m 9.40149,0.84595 -2.02726,5.56968 -5.80792,1.58079 2.41381,-5.17695 z m -17.74775,0.0801 -3.02359,3.60391 -5.42654,2.53008 2.97036,-2.97036 z m 38.42194,0.12557 -0.67696,7.73958 -7.91269,1.39526 1.25883,-7.13961 z m -42.53952,0.68575 -1.79265,1.79265 -1.80455,1.0418 2.27428,-1.90841 z m 6.25905,1.15548 -2.71456,3.87625 -4.91857,1.79059 2.90422,-3.46129 z m 9.25628,0.26458 -2.36833,5.07928 -5.49424,1.495 2.71405,-4.70049 z m 18.94768,0.0925 -1.24592,7.06571 -7.22694,1.27435 1.74408,-6.50865 z m -7.51013,2.0438 -1.72289,6.4301 -7.03007,1.23971 2.13631,-5.86889 z m -17.60875,0.10955 -2.64945,4.58939 -5.62498,1.53065 2.92075,-4.17132 z m -13.04881,0.0388 -2.48306,2.48305 -3.164663,1.47588 2.667019,-2.2381 z m 3.73414,0.35605 -2.71922,3.24011 -5.693714,2.07274 2.604504,-2.60449 z m 19.47943,1.52187 -2.1053,5.78414 -6.27094,1.10536 2.46239,-5.28029 z m -16.6641,0.44907 -2.8298,4.04161 -5.33559,1.45211 3.04632,-3.63078 z m 9.8671,1.40043 -2.41949,5.18831 -5.9123,1.04284 2.71456,-4.70204 z m -22.884915,0.007 -1.627807,1.3658 -2.316655,1.08056 1.374593,-0.96273 z m 2.538861,0.19482 -2.3058,2.3058 -3.753776,1.36632 2.270146,-1.90479 z m 49.433684,0.14159 -0.83251,9.51776 -8.69353,0.66198 1.54668,-8.77259 z m -45.38896,0.5979 -2.915074,3.47369 -5.980514,1.6278 2.93057,-2.93057 z m 9.72602,0.84801 -2.65565,4.59972 -5.97432,1.05368 2.85823,-4.08244 z m 26.95081,0.0904 -1.53376,8.69818 -7.91063,0.60254 2.14716,-8.01398 z m -46.959414,1.23093 -1.743046,1.46245 -3.187402,1.16013 1.383895,-0.96893 z m 38.902024,0.18965 -2.12649,7.93647 -7.62382,0.58033 2.64376,-7.26364 z m -25.71988,0.34727 -2.77761,3.96668 -5.643064,0.99529 2.903694,-3.46077 z m -10.421072,0.031 -2.7342,2.7342 -4.254521,1.15807 2.838587,-2.38177 z m 28.238072,1.01544 -2.61379,7.18147 -6.80992,0.51832 3.06803,-6.57945 z m -24.517374,0.7767 -2.792072,3.32744 -6.141228,1.08314 2.719214,-2.71922 z m -9.792679,0.41806 -2.526977,2.12028 -3.832324,1.04283 2.524393,-1.76733 z m 27.114113,0.0739 -3.02721,6.49211 -6.39857,0.48731 3.41788,-5.92005 z m -31.001731,0.50488 -0.271818,0.19017 -0.622184,0.22635 z m 24.094661,0.71314 -3.36362,5.82548 -6.390314,0.48679 3.668514,-5.23947 z m -17.98909,0.35191 -2.560567,2.56057 -4.533057,0.79944 2.52181,-2.11615 z m -8.592241,0.67593 -1.980241,1.38648 -2.351277,0.64027 2.108398,-1.21749 z m 19.521811,0.21653 -3.596684,5.13663 -6.018238,0.45786 3.839559,-4.57595 z m -17.111622,0.78961 -2.288749,1.92082 -4.119128,0.72605 2.109432,-1.47691 z m 10.26449,0.41806 -3.743441,4.46123 -6.397025,0.48679 3.836458,-3.83646 z m -18.985921,0.93742 -0.66766,0.3855 -0.381372,0.10387 z m 2.427758,0.3576 -1.744079,1.22111 -2.906799,0.51263 1.533239,-0.88522 z m 9.052161,0.0284 -3.706234,3.70623 -4.901509,0.37311 3.865397,-3.24322 z m -6.12004,1.079 -3.684529,3.0918 -4.515487,0.34365 3.797184,-2.65875 z m -8.697143,0.46147 -0.901237,0.52038 -1.62109,0.28578 0.613916,-0.28629 z m 2.66392,0.60203 -3.535702,2.47582 -3.525366,0.2682 3.73879,-2.15852 z m -5.337659,0.94103 -3.335714,1.92598 -2.657719,0.20206 3.693832,-1.72238 z m -4.963004,0.8754 -3.009636,1.40353 -2.514058,0.1912 3.309875,-1.20457 z" />
  </g>
</svg>
